<svg xmlns="http://www.w3.org/2000/svg" width="320" height="200" viewBox="0 0 320 200">
<rect width="320" height="200" fill="#DE2910"/>
<polygon points="86.63,51.35 70.65,63.46 76.46,82.65 60.00,71.20 43.54,82.65 49.35,63.46 33.37,51.35 53.42,50.94 60.00,32.00 66.58,50.94" fill="#FFDE00"/>
<polygon points="120.00,35.00 113.24,37.35 113.09,44.51 108.76,38.80 101.91,40.88 106.00,35.00 101.91,29.12 108.76,31.20 113.09,25.49 113.24,32.65" fill="#FFDE00"/>
<polygon points="135.00,55.00 128.24,57.35 128.09,64.51 123.76,58.80 116.91,60.88 121.00,55.00 116.91,49.12 123.76,51.20 128.09,45.49 128.24,52.65" fill="#FFDE00"/>
<polygon points="135.00,80.00 128.24,82.35 128.09,89.51 123.76,83.80 116.91,85.88 121.00,80.00 116.91,74.12 123.76,76.20 128.09,70.49 128.24,77.65" fill="#FFDE00"/>
<polygon points="120.00,100.00 113.24,102.35 113.09,109.51 108.76,103.80 101.91,105.88 106.00,100.00 101.91,94.12 108.76,96.20 113.09,90.49 113.24,97.65" fill="#FFDE00"/>
</svg>