<svg xmlns="http://www.w3.org/2000/svg" width="320" height="200" viewBox="0 0 320 200">
<rect width="320" height="66.67" y="0" fill="#FF9933"/>
<rect width="320" height="66.67" y="66.67" fill="#FFFFFF"/>
<rect width="320" height="66.67" y="133.33" fill="#128807"/>
<circle cx="160" cy="100" r="22" fill="none" stroke="#000080" stroke-width="3"/>
<line x1="160" y1="100" x2="182.00" y2="100.00" stroke="#000080" stroke-width="2"/>
<line x1="160" y1="100" x2="179.05" y2="111.00" stroke="#000080" stroke-width="2"/>
<line x1="160" y1="100" x2="171.00" y2="119.05" stroke="#000080" stroke-width="2"/>
<line x1="160" y1="100" x2="160.00" y2="122.00" stroke="#000080" stroke-width="2"/>
<line x1="160" y1="100" x2="149.00" y2="119.05" stroke="#000080" stroke-width="2"/>
<line x1="160" y1="100" x2="140.95" y2="111.00" stroke="#000080" stroke-width="2"/>
<line x1="160" y1="100" x2="138.00" y2="100.00" stroke="#000080" stroke-width="2"/>
<line x1="160" y1="100" x2="140.95" y2="89.00" stroke="#000080" stroke-width="2"/>
<line x1="160" y1="100" x2="149.00" y2="80.95" stroke="#000080" stroke-width="2"/>
<line x1="160" y1="100" x2="160.00" y2="78.00" stroke="#000080" stroke-width="2"/>
<line x1="160" y1="100" x2="171.00" y2="80.95" stroke="#000080" stroke-width="2"/>
<line x1="160" y1="100" x2="179.05" y2="89.00" stroke="#000080" stroke-width="2"/>
</svg>