<svg xmlns="http://www.w3.org/2000/svg" width="320" height="200" viewBox="0 0 320 200">
<rect x="0" y="0.000" width="320" height="15.385" fill="#B22234"/>
<rect x="0" y="15.385" width="320" height="15.385" fill="#FFFFFF"/>
<rect x="0" y="30.769" width="320" height="15.385" fill="#B22234"/>
<rect x="0" y="46.154" width="320" height="15.385" fill="#FFFFFF"/>
<rect x="0" y="61.538" width="320" height="15.385" fill="#B22234"/>
<rect x="0" y="76.923" width="320" height="15.385" fill="#FFFFFF"/>
<rect x="0" y="92.308" width="320" height="15.385" fill="#B22234"/>
<rect x="0" y="107.692" width="320" height="15.385" fill="#FFFFFF"/>
<rect x="0" y="123.077" width="320" height="15.385" fill="#B22234"/>
<rect x="0" y="138.462" width="320" height="15.385" fill="#FFFFFF"/>
<rect x="0" y="153.846" width="320" height="15.385" fill="#B22234"/>
<rect x="0" y="169.231" width="320" height="15.385" fill="#FFFFFF"/>
<rect x="0" y="184.615" width="320" height="15.385" fill="#B22234"/>
<rect x="0" y="0" width="128" height="107.7" fill="#3C3B6E"/>
<circle cx="12" cy="10" r="2.2" fill="#FFFFFF"/>
<circle cx="30" cy="10" r="2.2" fill="#FFFFFF"/>
<circle cx="48" cy="10" r="2.2" fill="#FFFFFF"/>
<circle cx="66" cy="10" r="2.2" fill="#FFFFFF"/>
<circle cx="84" cy="10" r="2.2" fill="#FFFFFF"/>
<circle cx="102" cy="10" r="2.2" fill="#FFFFFF"/>
<circle cx="22" cy="21" r="2.2" fill="#FFFFFF"/>
<circle cx="40" cy="21" r="2.2" fill="#FFFFFF"/>
<circle cx="58" cy="21" r="2.2" fill="#FFFFFF"/>
<circle cx="76" cy="21" r="2.2" fill="#FFFFFF"/>
<circle cx="94" cy="21" r="2.2" fill="#FFFFFF"/>
<circle cx="12" cy="32" r="2.2" fill="#FFFFFF"/>
<circle cx="30" cy="32" r="2.2" fill="#FFFFFF"/>
<circle cx="48" cy="32" r="2.2" fill="#FFFFFF"/>
<circle cx="66" cy="32" r="2.2" fill="#FFFFFF"/>
<circle cx="84" cy="32" r="2.2" fill="#FFFFFF"/>
<circle cx="102" cy="32" r="2.2" fill="#FFFFFF"/>
<circle cx="22" cy="43" r="2.2" fill="#FFFFFF"/>
<circle cx="40" cy="43" r="2.2" fill="#FFFFFF"/>
<circle cx="58" cy="43" r="2.2" fill="#FFFFFF"/>
<circle cx="76" cy="43" r="2.2" fill="#FFFFFF"/>
<circle cx="94" cy="43" r="2.2" fill="#FFFFFF"/>
<circle cx="12" cy="54" r="2.2" fill="#FFFFFF"/>
<circle cx="30" cy="54" r="2.2" fill="#FFFFFF"/>
<circle cx="48" cy="54" r="2.2" fill="#FFFFFF"/>
<circle cx="66" cy="54" r="2.2" fill="#FFFFFF"/>
<circle cx="84" cy="54" r="2.2" fill="#FFFFFF"/>
<circle cx="102" cy="54" r="2.2" fill="#FFFFFF"/>
<circle cx="22" cy="65" r="2.2" fill="#FFFFFF"/>
<circle cx="40" cy="65" r="2.2" fill="#FFFFFF"/>
<circle cx="58" cy="65" r="2.2" fill="#FFFFFF"/>
<circle cx="76" cy="65" r="2.2" fill="#FFFFFF"/>
<circle cx="94" cy="65" r="2.2" fill="#FFFFFF"/>
<circle cx="12" cy="76" r="2.2" fill="#FFFFFF"/>
<circle cx="30" cy="76" r="2.2" fill="#FFFFFF"/>
<circle cx="48" cy="76" r="2.2" fill="#FFFFFF"/>
<circle cx="66" cy="76" r="2.2" fill="#FFFFFF"/>
<circle cx="84" cy="76" r="2.2" fill="#FFFFFF"/>
<circle cx="102" cy="76" r="2.2" fill="#FFFFFF"/>
<circle cx="22" cy="87" r="2.2" fill="#FFFFFF"/>
<circle cx="40" cy="87" r="2.2" fill="#FFFFFF"/>
<circle cx="58" cy="87" r="2.2" fill="#FFFFFF"/>
<circle cx="76" cy="87" r="2.2" fill="#FFFFFF"/>
<circle cx="94" cy="87" r="2.2" fill="#FFFFFF"/>
<circle cx="12" cy="98" r="2.2" fill="#FFFFFF"/>
<circle cx="30" cy="98" r="2.2" fill="#FFFFFF"/>
<circle cx="48" cy="98" r="2.2" fill="#FFFFFF"/>
<circle cx="66" cy="98" r="2.2" fill="#FFFFFF"/>
<circle cx="84" cy="98" r="2.2" fill="#FFFFFF"/>
<circle cx="102" cy="98" r="2.2" fill="#FFFFFF"/>
</svg>